<svg width="192" height="64" viewBox="0 0 192 64" fill="none" xmlns="http://www.w3.org/2000/svg">
<path d="M57.5467 12H7.34222C6.45581 12 5.6057 12.3521 4.97891 12.9789C4.35213 13.6057 4 14.4558 4 15.3422V47.7689C4 48.6553 4.35213 49.5054 4.97891 50.1322C5.6057 50.759 6.45581 51.1111 7.34222 51.1111H57.5467C58.4331 51.1111 59.2832 50.759 59.91 50.1322C60.5368 49.5054 60.8889 48.6553 60.8889 47.7689V15.3422C60.8889 14.4558 60.5368 13.6057 59.91 12.9789C59.2832 12.3521 58.4331 12 57.5467 12V12ZM43.4311 33.0311L26.0622 40.7822C25.7918 40.9038 25.4952 40.9558 25.1995 40.9335C24.9038 40.9112 24.6184 40.8152 24.3693 40.6544C24.1202 40.4937 23.9152 40.2731 23.7731 40.0129C23.6309 39.7526 23.5562 39.461 23.5556 39.1644V23.6622C23.5562 23.3657 23.6309 23.074 23.7731 22.8138C23.9152 22.5536 24.1202 22.333 24.3693 22.1722C24.6184 22.0114 24.9038 21.9155 25.1995 21.8932C25.4952 21.8709 25.7918 21.9229 26.0622 22.0444L43.4311 29.7778C43.7466 29.9169 44.0148 30.1447 44.2031 30.4335C44.3914 30.7223 44.4916 31.0597 44.4916 31.4044C44.4916 31.7492 44.3914 32.0866 44.2031 32.3754C44.0148 32.6642 43.7466 32.892 43.4311 33.0311V33.0311Z" fill="#FD9902"/>
<g filter="url(#filter0_d_1_31)">
<path d="M70.7461 41V23.8203H76.3125C78.4219 23.8203 79.7969 23.9062 80.4375 24.0781C81.4219 24.3359 82.2461 24.8984 82.9102 25.7656C83.5742 26.625 83.9062 27.7383 83.9062 29.1055C83.9062 30.1602 83.7148 31.0469 83.332 31.7656C82.9492 32.4844 82.4609 33.0508 81.8672 33.4648C81.2812 33.8711 80.6836 34.1406 80.0742 34.2734C79.2461 34.4375 78.0469 34.5195 76.4766 34.5195H74.2148V41H70.7461ZM74.2148 26.7266V31.6016H76.1133C77.4805 31.6016 78.3945 31.5117 78.8555 31.332C79.3164 31.1523 79.6758 30.8711 79.9336 30.4883C80.1992 30.1055 80.332 29.6602 80.332 29.1523C80.332 28.5273 80.1484 28.0117 79.7812 27.6055C79.4141 27.1992 78.9492 26.9453 78.3867 26.8438C77.9727 26.7656 77.1406 26.7266 75.8906 26.7266H74.2148ZM86.7305 41V23.8203H90.0234V41H86.7305ZM95.8711 32.3516L92.8828 31.8125C93.2188 30.6094 93.7969 29.7188 94.6172 29.1406C95.4375 28.5625 96.6562 28.2734 98.2734 28.2734C99.7422 28.2734 100.836 28.4492 101.555 28.8008C102.273 29.1445 102.777 29.5859 103.066 30.125C103.363 30.6562 103.512 31.6367 103.512 33.0664L103.477 36.9102C103.477 38.0039 103.527 38.8125 103.629 39.3359C103.738 39.8516 103.938 40.4062 104.227 41H100.969C100.883 40.7812 100.777 40.457 100.652 40.0273C100.598 39.832 100.559 39.7031 100.535 39.6406C99.9727 40.1875 99.3711 40.5977 98.7305 40.8711C98.0898 41.1445 97.4062 41.2812 96.6797 41.2812C95.3984 41.2812 94.3867 40.9336 93.6445 40.2383C92.9102 39.543 92.543 38.6641 92.543 37.6016C92.543 36.8984 92.7109 36.2734 93.0469 35.7266C93.3828 35.1719 93.8516 34.75 94.4531 34.4609C95.0625 34.1641 95.9375 33.9062 97.0781 33.6875C98.6172 33.3984 99.6836 33.1289 100.277 32.8789V32.5508C100.277 31.918 100.121 31.4688 99.8086 31.2031C99.4961 30.9297 98.9062 30.793 98.0391 30.793C97.4531 30.793 96.9961 30.9102 96.668 31.1445C96.3398 31.3711 96.0742 31.7734 95.8711 32.3516ZM100.277 35.0234C99.8555 35.1641 99.1875 35.332 98.2734 35.5273C97.3594 35.7227 96.7617 35.9141 96.4805 36.1016C96.0508 36.4062 95.8359 36.793 95.8359 37.2617C95.8359 37.7227 96.0078 38.1211 96.3516 38.457C96.6953 38.793 97.1328 38.9609 97.6641 38.9609C98.2578 38.9609 98.8242 38.7656 99.3633 38.375C99.7617 38.0781 100.023 37.7148 100.148 37.2852C100.234 37.0039 100.277 36.4688 100.277 35.6797V35.0234ZM105.211 28.5547H108.715L111.691 37.3906L114.598 28.5547H118.008L113.613 40.5312L112.828 42.6992C112.539 43.4258 112.262 43.9805 111.996 44.3633C111.738 44.7461 111.438 45.0547 111.094 45.2891C110.758 45.5312 110.34 45.7188 109.84 45.8516C109.348 45.9844 108.789 46.0508 108.164 46.0508C107.531 46.0508 106.91 45.9844 106.301 45.8516L106.008 43.2734C106.523 43.375 106.988 43.4258 107.402 43.4258C108.168 43.4258 108.734 43.1992 109.102 42.7461C109.469 42.3008 109.75 41.7305 109.945 41.0352L105.211 28.5547ZM120.176 41V23.8203H131.953V26.7266H123.645V30.793H130.816V33.6992H123.645V41H120.176ZM134.801 41V23.8203H138.094V41H134.801ZM141.48 26.8672V23.8203H144.773V26.8672H141.48ZM141.48 41V28.5547H144.773V41H141.48ZM146.578 41L151.066 34.5898L146.766 28.5547H150.785L152.988 31.9766L155.309 28.5547H159.176L154.957 34.4492L159.562 41H155.52L152.988 37.1445L150.434 41H146.578Z" fill="black"/>
</g>
<defs>
<filter id="filter0_d_1_31" x="66.7461" y="23.8203" width="96.8164" height="30.2305" filterUnits="userSpaceOnUse" color-interpolation-filters="sRGB">
<feFlood flood-opacity="0" result="BackgroundImageFix"/>
<feColorMatrix in="SourceAlpha" type="matrix" values="0 0 0 0 0 0 0 0 0 0 0 0 0 0 0 0 0 0 127 0" result="hardAlpha"/>
<feOffset dy="4"/>
<feGaussianBlur stdDeviation="2"/>
<feComposite in2="hardAlpha" operator="out"/>
<feColorMatrix type="matrix" values="0 0 0 0 0 0 0 0 0 0 0 0 0 0 0 0 0 0 0.25 0"/>
<feBlend mode="normal" in2="BackgroundImageFix" result="effect1_dropShadow_1_31"/>
<feBlend mode="normal" in="SourceGraphic" in2="effect1_dropShadow_1_31" result="shape"/>
</filter>
</defs>
</svg>
